<svg width="61" height="56" viewBox="0 0 61 56" fill="none" xmlns="http://www.w3.org/2000/svg">
<g clip-path="url(#clip0_73_12)">
<path d="M13.4151 15.7851C13.4151 14.4391 13.6693 13.6195 13.8083 12.6518L14.6643 6.95396C14.7327 6.40689 14.7794 6.11262 14.7794 5.92401C14.7794 5.60801 14.548 5.3562 14.132 5.3562C13.7844 5.3562 13.4846 5.6722 12.999 6.19656L7.79486 12.0632V12.399C10.1542 13.3667 10.7321 13.7667 10.7321 15.7851L10.4312 29.0945C6.40665 35.4865 0 48.2094 0 51.3822C0 52.8546 1.08624 53.7384 2.31369 53.7384C3.44664 53.7384 4.11685 53.1064 5.06514 52.1821C5.945 51.32 8.46507 49.0695 9.66754 47.9981C10.1998 47.4935 11.0329 46.7143 11.9345 46.7143C12.8361 46.7143 13.6464 47.4935 14.2015 47.9981C15.3812 49.0695 17.9251 51.32 18.8039 52.1821C19.7055 53.1073 20.4007 53.7374 21.5564 53.7374C22.7817 53.7374 23.8462 52.8545 23.8462 51.3832C23.8462 48.2499 17.5547 35.7393 13.5997 29.368L13.4151 15.7851ZM43.4605 42.7407C44.4772 41.3325 45.5178 39.9233 45.5178 37.421C45.5178 35.214 44.8932 33.7624 44.8932 32.7107C44.8932 31.7025 46.3738 30.8187 49.9117 30.8187C53.4517 30.8187 54.9312 31.7025 54.9312 32.7117C54.9312 33.7624 54.3077 35.214 54.3077 37.422C54.3077 42.1106 58.0998 43.0567 58.0998 47.0935C58.0998 49.8901 54.7237 51.236 49.9128 51.236C47.4839 51.236 45.4711 50.9418 43.8526 50.1429C43.4944 50.9159 43.0282 51.6437 42.4655 52.3085C44.638 53.3809 47.2059 53.6959 49.9128 53.6959C55.6025 53.6959 60.8295 52.0981 60.8295 46.8832C60.8295 41.6268 57.0602 41.0372 57.0602 37.5899C57.0602 35.4026 57.8228 33.6794 57.8228 32.1646C57.8228 30.2301 55.4168 28.822 51.4856 28.5692L51.2304 15.6172C51.2087 14.3335 53.2204 13.7459 53.1509 13.03C52.85 9.62414 52.5958 7.98392 52.4796 7.20676C52.3405 6.36542 51.5313 5.98721 49.9128 5.98721C48.2943 5.98721 47.4839 6.36542 47.3449 7.20676C47.2298 7.98392 46.9756 9.62414 46.6747 13.031C46.628 13.7459 48.6169 14.3345 48.5941 15.6172L48.3399 28.5692C44.3849 28.8427 42.0028 30.2301 42.0028 32.1646C42.0028 33.6784 42.7892 35.4036 42.7892 37.5899C42.7892 38.6199 42.4188 39.4395 41.9332 40.1337C42.5672 40.9371 43.0815 41.8138 43.4605 42.7407ZM23.6833 44.1508C24.8402 42.2163 27.0137 40.3657 27.0137 37.3174C27.0137 33.9954 25.2106 32.5438 25.2106 32.0185L25.4637 31.9345C26.0882 32.6495 27.0604 33.7851 28.5399 33.7851C29.7663 33.7851 30.6222 33.1956 31.1078 32.0817C31.5933 33.1956 32.4254 33.7851 33.6746 33.7851C35.1551 33.7851 36.1262 32.6495 36.7508 31.9345L36.9822 32.0185C36.9822 32.5438 35.2007 33.9954 35.2007 37.3174C35.2007 41.6692 39.272 43.0576 39.272 46.8842C39.272 49.659 35.9187 51.237 31.1078 51.237C29.1189 51.237 27.4298 50.9635 26.1111 50.5004C26.135 51.2578 26.0187 52.4981 25.7874 53.0451C27.4993 53.529 29.2807 53.6969 31.1078 53.6969C36.7975 53.6969 42.0245 51.868 42.0245 46.8842C42.0245 41.8381 37.9533 40.6393 37.9533 37.0646C37.9533 34.1001 40.1507 32.2495 40.1507 30.6943C40.1507 29.6633 39.0862 28.6758 37.8609 28.6758C36.9365 28.6758 36.4271 29.3276 36.0795 29.7472C35.4093 30.5471 35.1323 31.2403 33.7908 31.2403C33.1662 31.2403 32.8892 31.0932 32.7263 30.8197L32.4721 15.6182C32.4721 14.0619 33.0272 13.8091 33.3519 13.6413C33.605 13.4734 33.8136 13.3055 33.8136 12.9263C33.8136 9.47799 34.8781 8.65837 34.8781 7.75383C34.8781 7.41808 34.5305 7.33316 34.1145 7.08135C33.4432 6.63994 32.1951 5.9882 31.1306 5.9882C30.0661 5.9882 28.8169 6.63994 28.1467 7.08135C27.7535 7.33316 27.3841 7.4171 27.3841 7.75383C27.3841 8.65837 28.4487 9.47799 28.4487 12.9263C28.4487 13.3045 28.655 13.4734 28.9331 13.6413C29.234 13.8091 29.813 14.0412 29.813 15.6182L29.5121 30.7782C29.373 31.0725 29.095 31.2403 28.4248 31.2403C27.0832 31.2403 26.8063 30.5471 26.135 29.769C25.7874 29.3276 25.2551 28.6758 24.3535 28.6758C23.1282 28.6758 22.0637 29.6633 22.0637 30.6943C22.0637 32.2495 24.2612 34.1001 24.2612 37.0646C24.2612 38.768 23.2434 40.03 22.3418 41.2495C22.8274 42.2173 23.2901 43.184 23.6833 44.1508ZM11.9334 44.2347C10.5691 44.2347 9.41336 45.1185 8.16419 46.1485C6.73035 47.3039 4.99454 48.9451 3.07515 51.006C2.98282 51.1106 2.77426 51.0899 2.79707 50.8796C3.37604 47.4312 8.11748 37.9898 11.9334 31.7449C15.7494 37.9691 20.4908 47.4095 21.0687 50.8796C21.0926 51.0474 20.8623 51.1106 20.7461 50.9635C18.8724 48.9451 17.1148 47.3048 15.6799 46.1485C14.4546 45.1176 13.2978 44.2347 11.9334 44.2347ZM49.9117 39.4197C50.5606 39.4158 51.1817 39.1798 51.6405 38.7626C52.0994 38.3455 52.3591 37.7809 52.3633 37.191C52.3591 36.601 52.0994 36.0364 51.6405 35.6193C51.1817 35.2021 50.5606 34.9661 49.9117 34.9622C49.2628 34.9661 48.6417 35.2021 48.1828 35.6193C47.724 36.0364 47.4643 36.601 47.46 37.191C47.4643 37.7809 47.724 38.3455 48.1828 38.7626C48.6417 39.1798 49.2628 39.4158 49.9117 39.4197Z" fill="black"/>
</g>
<defs>
<clipPath id="clip0_73_12">
<rect width="60.8295" height="55.2995" fill="white"/>
</clipPath>
</defs>
</svg>
